<svg viewBox="0 0 100 100" xmlns="http://www.w3.org/2000/svg" id="Work-Calendar--Streamline-Ux">
  <desc>
    Work Calendar Streamline Illustration: https://streamlinehq.com
  </desc>
  <path d="M10 50a40 40 0 1 0 80 0 40 40 0 1 0 -80 0Z" fill="#d9edff" stroke-width="1"></path>
  <path d="M29.052 75.36a20.948 1.548 0 1 0 41.896 0 20.948 1.548 0 1 0 -41.896 0Z" fill="#b0d9ff" stroke-width="1"></path>
  <path d="m23.326 29.155 53.482 0 0 45.078 -53.482 0Z" fill="#ffffff" stroke="#020064" stroke-linejoin="round" stroke-width="1"></path>
  <path d="M76.808 42.908H23.326V31.555a2.4 2.4 0 0 1 2.4 -2.4h48.682a2.4 2.4 0 0 1 2.4 2.4Z" fill="#b0d9ff" stroke-width="1"></path>
  <path d="M76.808 52.076v19.1a3.056 3.056 0 0 1 -3.056 3.056H52.359s12.224 -3.819 24.449 -22.156Z" fill="#ffffff" stroke-width="1"></path>
  <path d="M76.808 52.076v19.1a3.056 3.056 0 0 1 -3.056 3.056H52.359s12.224 -3.819 24.449 -22.156Z" fill="none" stroke="#020064" stroke-linejoin="round" stroke-width="1"></path>
  <path d="M76.808 42.908H23.326V31.555a2.4 2.4 0 0 1 2.4 -2.4h48.682a2.4 2.4 0 0 1 2.4 2.4Z" fill="none" stroke="#020064" stroke-linejoin="round" stroke-width="1"></path>
  <path d="M34.786 33.739a4.584 4.584 0 1 1 4.584 -4.584" fill="none" stroke="#020064" stroke-linecap="round" stroke-linejoin="round" stroke-width="1"></path>
  <path d="M50.831 33.739a4.584 4.584 0 1 1 4.584 -4.584" fill="none" stroke="#020064" stroke-linecap="round" stroke-linejoin="round" stroke-width="1"></path>
  <path d="M66.876 33.739a4.584 4.584 0 1 1 4.584 -4.584" fill="none" stroke="#020064" stroke-linecap="round" stroke-linejoin="round" stroke-width="1"></path>
  <path d="m23.326 50.548 53.482 0" fill="none" stroke="#020064" stroke-linecap="round" stroke-linejoin="round" stroke-width="1"></path>
  <path d="m23.326 58.188 31.965 0" fill="none" stroke="#020064" stroke-linecap="round" stroke-linejoin="round" stroke-width="1"></path>
  <path d="m23.326 65.829 31.965 0" fill="none" stroke="#020064" stroke-linecap="round" stroke-linejoin="round" stroke-width="1"></path>
  <path d="m34.022 42.908 0 31.325" fill="none" stroke="#020064" stroke-linecap="round" stroke-linejoin="round" stroke-width="1"></path>
  <path d="m44.719 42.908 0 31.325" fill="none" stroke="#020064" stroke-linecap="round" stroke-linejoin="round" stroke-width="1"></path>
  <path d="m55.415 42.908 0 10.368" fill="none" stroke="#020064" stroke-linecap="round" stroke-linejoin="round" stroke-width="1"></path>
  <path d="m66.111 42.908 0 11.763" fill="none" stroke="#020064" stroke-linecap="round" stroke-linejoin="round" stroke-width="1"></path>
  <path d="M23.326 50.548h10.696v7.64H23.326z" fill="#b0d9ff" stroke="#020064" stroke-linejoin="round" stroke-width="1"></path>
  <path d="M34.022 65.829h10.696v8.404H34.022z" fill="#b0d9ff" stroke="#020064" stroke-linejoin="round" stroke-width="1"></path>
  <path d="M44.719 42.908h10.696v7.64H44.719z" fill="#b0d9ff" stroke="#020064" stroke-linejoin="round" stroke-width="1"></path>
  <path d="M76.808 52.076C64.583 70.413 52.359 74.233 52.359 74.233A24.691 24.691 0 0 0 54.293 54a0.634 0.634 0 0 1 0.756 -0.826c3.528 0.967 14.174 3.326 21.759 -1.098Z" fill="#ffffff" stroke="#020064" stroke-linecap="round" stroke-linejoin="round" stroke-width="1"></path>
  <path d="m42.426 38.323 15.281 0" fill="none" stroke="#020064" stroke-linecap="round" stroke-linejoin="round" stroke-width="1"></path>
  <path d="m66.111 38.323 6.113 0" fill="none" stroke="#020064" stroke-linecap="round" stroke-linejoin="round" stroke-width="1"></path>
  <path d="m34.022 38.323 -6.112 0" fill="none" stroke="#020064" stroke-linecap="round" stroke-linejoin="round" stroke-width="1"></path>
</svg>